{
    "asset" : {
        "generator" : "Khronos glTF Blender I/O v1.5.17",
        "version" : "2.0"
    },
    "extensionsUsed" : [
        "KHR_lights_punctual"
    ],
    "extensionsRequired" : [
        "KHR_lights_punctual"
    ],
    "extensions" : {
        "KHR_lights_punctual" : {
            "lights" : [
                {
                    "color" : [
                        0.9849011898040771,
                        0.969936192035675,
                        1
                    ],
                    "intensity" : 300,
                    "spot" : {
                        "innerConeAngle" : 0.6419358268069111,
                        "outerConeAngle" : 0.7552186250686646
                    },
                    "type" : "spot",
                    "name" : "Light"
                },
                {
                    "color" : [
                        0.6233965158462524,
                        0.9428580403327942,
                        1
                    ],
                    "intensity" : 100,
                    "spot" : {
                        "innerConeAngle" : 0.8030592385245825,
                        "outerConeAngle" : 0.9447755813598633
                    },
                    "type" : "spot",
                    "name" : "Light.001"
                },
                {
                    "color" : [
                        0.9961215853691101,
                        0.9335126280784607,
                        1
                    ],
                    "intensity" : 100,
                    "spot" : {
                        "innerConeAngle" : 0.5540796777495238,
                        "outerConeAngle" : 0.6518584489822388
                    },
                    "type" : "spot",
                    "name" : "Light.002"
                }
            ]
        }
    },
    "scene" : 0,
    "scenes" : [
        {
            "name" : "Scene",
            "nodes" : [
                1,
                2,
                3,
                5,
                7
            ]
        }
    ],
    "nodes" : [
        {
            "extensions" : {
                "KHR_lights_punctual" : {
                    "light" : 0
                }
            },
            "name" : "Light_Orientation",
            "rotation" : [
                -0.7071067690849304,
                0,
                0,
                0.7071067690849304
            ]
        },
        {
            "children" : [
                0
            ],
            "name" : "Light",
            "rotation" : [
                0.6609489917755127,
                0.544380784034729,
                -0.12566456198692322,
                0.5010034441947937
            ],
            "scale" : [
                0.6159156560897827,
                0.39362138509750366,
                0.32574623823165894
            ],
            "translation" : [
                3.4400930404663086,
                1.4490504264831543,
                2.1249911785125732
            ]
        },
        {
            "name" : "Camera",
            "rotation" : [
                0.5737103223800659,
                0.17842517793178558,
                -0.129775270819664,
                0.7887834310531616
            ],
            "translation" : [
                2.892559051513672,
                3.458739995956421,
                6.27183723449707
            ]
        },
        {
            "mesh" : 0,
            "name" : "ENGRENAGEM",
            "rotation" : [
                0.7062012553215027,
                -0.035774607211351395,
                -0.035774607211351395,
                0.7062011957168579
            ],
            "scale" : [
                0.48194363713264465,
                0.7700159549713135,
                0.48194363713264465
            ],
            "translation" : [
                -0.0012183189392089844,
                0.8258687853813171,
                -0.023027896881103516
            ]
        },
        {
            "extensions" : {
                "KHR_lights_punctual" : {
                    "light" : 1
                }
            },
            "name" : "Light.001_Orientation",
            "rotation" : [
                -0.7071067690849304,
                0,
                0,
                0.7071067690849304
            ]
        },
        {
            "children" : [
                4
            ],
            "name" : "Light.001",
            "rotation" : [
                -0.05092722177505493,
                0.46093815565109253,
                0.4348130226135254,
                0.7719327211380005
            ],
            "scale" : [
                0.6159156560897827,
                0.39362138509750366,
                0.32574623823165894
            ],
            "translation" : [
                -3.0630154609680176,
                2.925365686416626,
                1.3075273036956787
            ]
        },
        {
            "extensions" : {
                "KHR_lights_punctual" : {
                    "light" : 2
                }
            },
            "name" : "Light.002_Orientation",
            "rotation" : [
                -0.7071067690849304,
                0,
                0,
                0.7071067690849304
            ]
        },
        {
            "children" : [
                6
            ],
            "name" : "Light.002",
            "rotation" : [
                -0.059240568429231644,
                0.7177284359931946,
                -0.45016735792160034,
                0.5279260873794556
            ],
            "scale" : [
                0.6159156560897827,
                0.39362138509750366,
                0.32574623823165894
            ],
            "translation" : [
                0.7924860715866089,
                2.7911550998687744,
                -2.328356981277466
            ]
        }
    ],
    "animations" : [
        {
            "channels" : [
                {
                    "sampler" : 0,
                    "target" : {
                        "node" : 3,
                        "path" : "rotation"
                    }
                }
            ],
            "name" : "ENGRENAGEMAction",
            "samplers" : [
                {
                    "input" : 20,
                    "interpolation" : "LINEAR",
                    "output" : 21
                }
            ]
        }
    ],
    "materials" : [
        {
            "doubleSided" : true,
            "name" : "METALICO",
            "pbrMetallicRoughness" : {
                "baseColorFactor" : [
                    1,
                    0.6588725447654724,
                    0,
                    1
                ],
                "roughnessFactor" : 0.1818181872367859
            }
        },
        {
            "doubleSided" : true,
            "name" : "AZUL",
            "pbrMetallicRoughness" : {
                "baseColorFactor" : [
                    0.03019637055695057,
                    0.018990764394402504,
                    1,
                    1
                ],
                "roughnessFactor" : 0.1818181872367859
            }
        },
        {
            "doubleSided" : true,
            "name" : "VERMELHO",
            "pbrMetallicRoughness" : {
                "baseColorFactor" : [
                    1,
                    0,
                    0.0008398535428568721,
                    1
                ],
                "roughnessFactor" : 0.1818181872367859
            }
        },
        {
            "doubleSided" : true,
            "name" : "BRANCO",
            "pbrMetallicRoughness" : {
                "baseColorFactor" : [
                    1,
                    0.9576401710510254,
                    0.9893091320991516,
                    1
                ],
                "roughnessFactor" : 0.1818181872367859
            }
        }
    ],
    "meshes" : [
        {
            "name" : "C\u00edrculo.003",
            "primitives" : [
                {
                    "attributes" : {
                        "POSITION" : 0,
                        "NORMAL" : 1,
                        "TEXCOORD_0" : 2,
                        "TEXCOORD_1" : 3
                    },
                    "indices" : 4,
                    "material" : 0
                },
                {
                    "attributes" : {
                        "POSITION" : 5,
                        "NORMAL" : 6,
                        "TEXCOORD_0" : 7,
                        "TEXCOORD_1" : 8
                    },
                    "indices" : 9,
                    "material" : 1
                },
                {
                    "attributes" : {
                        "POSITION" : 10,
                        "NORMAL" : 11,
                        "TEXCOORD_0" : 12,
                        "TEXCOORD_1" : 13
                    },
                    "indices" : 14,
                    "material" : 2
                },
                {
                    "attributes" : {
                        "POSITION" : 15,
                        "NORMAL" : 16,
                        "TEXCOORD_0" : 17,
                        "TEXCOORD_1" : 18
                    },
                    "indices" : 19,
                    "material" : 3
                }
            ]
        }
    ],
    "accessors" : [
        {
            "bufferView" : 0,
            "componentType" : 5126,
            "count" : 4907,
            "max" : [
                1.4455602169036865,
                0.05067596584558487,
                1.6613481044769287
            ],
            "min" : [
                -1.6646902561187744,
                -0.08745929598808289,
                -2.7155568599700928
            ],
            "type" : "VEC3"
        },
        {
            "bufferView" : 1,
            "componentType" : 5126,
            "count" : 4907,
            "type" : "VEC3"
        },
        {
            "bufferView" : 2,
            "componentType" : 5126,
            "count" : 4907,
            "type" : "VEC2"
        },
        {
            "bufferView" : 3,
            "componentType" : 5126,
            "count" : 4907,
            "type" : "VEC2"
        },
        {
            "bufferView" : 4,
            "componentType" : 5123,
            "count" : 8397,
            "type" : "SCALAR"
        },
        {
            "bufferView" : 5,
            "componentType" : 5126,
            "count" : 272,
            "max" : [
                1.1363414525985718,
                0.05067591369152069,
                -1.5590806007385254
            ],
            "min" : [
                -1.499489188194275,
                -0.003840576857328415,
                -2.14441180229187
            ],
            "type" : "VEC3"
        },
        {
            "bufferView" : 6,
            "componentType" : 5126,
            "count" : 272,
            "type" : "VEC3"
        },
        {
            "bufferView" : 7,
            "componentType" : 5126,
            "count" : 272,
            "type" : "VEC2"
        },
        {
            "bufferView" : 8,
            "componentType" : 5126,
            "count" : 272,
            "type" : "VEC2"
        },
        {
            "bufferView" : 9,
            "componentType" : 5123,
            "count" : 408,
            "type" : "SCALAR"
        },
        {
            "bufferView" : 10,
            "componentType" : 5126,
            "count" : 5209,
            "max" : [
                1.3437929153442383,
                0.09353551268577576,
                1.5536116361618042
            ],
            "min" : [
                -1.539003610610962,
                -0.006247933022677898,
                -2.5283985137939453
            ],
            "type" : "VEC3"
        },
        {
            "bufferView" : 11,
            "componentType" : 5126,
            "count" : 5209,
            "type" : "VEC3"
        },
        {
            "bufferView" : 12,
            "componentType" : 5126,
            "count" : 5209,
            "type" : "VEC2"
        },
        {
            "bufferView" : 13,
            "componentType" : 5126,
            "count" : 5209,
            "type" : "VEC2"
        },
        {
            "bufferView" : 14,
            "componentType" : 5123,
            "count" : 8244,
            "type" : "SCALAR"
        },
        {
            "bufferView" : 15,
            "componentType" : 5126,
            "count" : 2719,
            "max" : [
                1.2775062322616577,
                0.08387893438339233,
                1.5312342643737793
            ],
            "min" : [
                -1.4029862880706787,
                -0.035423826426267624,
                -2.4544925689697266
            ],
            "type" : "VEC3"
        },
        {
            "bufferView" : 16,
            "componentType" : 5126,
            "count" : 2719,
            "type" : "VEC3"
        },
        {
            "bufferView" : 17,
            "componentType" : 5126,
            "count" : 2719,
            "type" : "VEC2"
        },
        {
            "bufferView" : 18,
            "componentType" : 5126,
            "count" : 2719,
            "type" : "VEC2"
        },
        {
            "bufferView" : 19,
            "componentType" : 5123,
            "count" : 7287,
            "type" : "SCALAR"
        },
        {
            "bufferView" : 20,
            "componentType" : 5126,
            "count" : 250,
            "max" : [
                10.416666666666666
            ],
            "min" : [
                0.041666666666666664
            ],
            "type" : "SCALAR"
        },
        {
            "bufferView" : 21,
            "componentType" : 5126,
            "count" : 250,
            "type" : "VEC4"
        }
    ],
    "bufferViews" : [
        {
            "buffer" : 0,
            "byteLength" : 58884,
            "byteOffset" : 0
        },
        {
            "buffer" : 0,
            "byteLength" : 58884,
            "byteOffset" : 58884
        },
        {
            "buffer" : 0,
            "byteLength" : 39256,
            "byteOffset" : 117768
        },
        {
            "buffer" : 0,
            "byteLength" : 39256,
            "byteOffset" : 157024
        },
        {
            "buffer" : 0,
            "byteLength" : 16794,
            "byteOffset" : 196280
        },
        {
            "buffer" : 0,
            "byteLength" : 3264,
            "byteOffset" : 213076
        },
        {
            "buffer" : 0,
            "byteLength" : 3264,
            "byteOffset" : 216340
        },
        {
            "buffer" : 0,
            "byteLength" : 2176,
            "byteOffset" : 219604
        },
        {
            "buffer" : 0,
            "byteLength" : 2176,
            "byteOffset" : 221780
        },
        {
            "buffer" : 0,
            "byteLength" : 816,
            "byteOffset" : 223956
        },
        {
            "buffer" : 0,
            "byteLength" : 62508,
            "byteOffset" : 224772
        },
        {
            "buffer" : 0,
            "byteLength" : 62508,
            "byteOffset" : 287280
        },
        {
            "buffer" : 0,
            "byteLength" : 41672,
            "byteOffset" : 349788
        },
        {
            "buffer" : 0,
            "byteLength" : 41672,
            "byteOffset" : 391460
        },
        {
            "buffer" : 0,
            "byteLength" : 16488,
            "byteOffset" : 433132
        },
        {
            "buffer" : 0,
            "byteLength" : 32628,
            "byteOffset" : 449620
        },
        {
            "buffer" : 0,
            "byteLength" : 32628,
            "byteOffset" : 482248
        },
        {
            "buffer" : 0,
            "byteLength" : 21752,
            "byteOffset" : 514876
        },
        {
            "buffer" : 0,
            "byteLength" : 21752,
            "byteOffset" : 536628
        },
        {
            "buffer" : 0,
            "byteLength" : 14574,
            "byteOffset" : 558380
        },
        {
            "buffer" : 0,
            "byteLength" : 1000,
            "byteOffset" : 572956
        },
        {
            "buffer" : 0,
            "byteLength" : 4000,
            "byteOffset" : 573956
        }
    ],
    "buffers" : [
        {
            "byteLength" : 577956,
            "uri" : "data:application/octet-stream;base64,"
        }
    ]
}
