{
	"asset":{
		"generator":"Khronos glTF Blender I/O v4.2.69",
		"version":"2.0"
	},
	"extensionsUsed":[
		"KHR_lights_punctual"
	],
	"extensionsRequired":[
		"KHR_lights_punctual"
	],
	"extensions":{
		"KHR_lights_punctual":{
			"lights":[
				{
					"color":[
						1,
						1,
						1
					],
					"intensity":54351.41306588226,
					"type":"point",
					"name":"Light"
				}
			]
		}
	},
	"scene":0,
	"scenes":[
		{
			"name":"Scene",
			"nodes":[
				0,
				1,
				2,
				3,
				4
			]
		}
	],
	"nodes":[
		{
			"mesh":0,
			"name":"ENGRENAGEM",
			"rotation":[
				0.7062013149261475,
				-0.03577461466193199,
				-0.035774607211351395,
				0.7062011361122131
			],
			"scale":[
				0.09351346641778946,
				0.14940932393074036,
				0.09351347386837006
			],
			"translation":[
				0.7801501154899597,
				0.15419124066829681,
				-0.6572381854057312
			]
		},
		{
			"extensions":{
				"KHR_lights_punctual":{
					"light":0
				}
			},
			"name":"Light",
			"rotation":[
				-0.28416627645492554,
				0.7269423007965088,
				0.34203392267227173,
				0.5232754945755005
			],
			"translation":[
				4.076245307922363,
				5.903861999511719,
				-1.0054539442062378
			]
		},
		{
			"mesh":1,
			"name":"Plano"
		},
		{
			"mesh":2,
			"name":"Texto.001",
			"scale":[
				0.18811018764972687,
				0.18811018764972687,
				0.18811018764972687
			],
			"translation":[
				-0.969577431678772,
				0.015059560537338257,
				-0.8001967072486877
			]
		},
		{
			"mesh":3,
			"name":"Texto",
			"scale":[
				0.23137174546718597,
				0.23137174546718597,
				0.23137174546718597
			],
			"translation":[
				-0.5071629285812378,
				0.01777741312980652,
				0.8997833132743835
			]
		}
	],
	"animations":[
		{
			"channels":[
				{
					"sampler":0,
					"target":{
						"node":0,
						"path":"rotation"
					}
				}
			],
			"name":"ENGRENAGEMAction",
			"samplers":[
				{
					"input":38,
					"interpolation":"LINEAR",
					"output":39
				}
			]
		}
	],
	"materials":[
		{
			"doubleSided":true,
			"name":"METALICO",
			"pbrMetallicRoughness":{
				"baseColorFactor":[
					1,
					0.6588725447654724,
					0,
					1
				],
				"roughnessFactor":0.1818181872367859
			}
		},
		{
			"doubleSided":true,
			"name":"AZUL",
			"pbrMetallicRoughness":{
				"baseColorFactor":[
					0.03019637055695057,
					0.018990764394402504,
					1,
					1
				],
				"roughnessFactor":0.1818181872367859
			}
		},
		{
			"doubleSided":true,
			"name":"VERMELHO",
			"pbrMetallicRoughness":{
				"baseColorFactor":[
					1,
					0,
					0.0008398535428568721,
					1
				],
				"roughnessFactor":0.1818181872367859
			}
		},
		{
			"doubleSided":true,
			"name":"BRANCO",
			"pbrMetallicRoughness":{
				"baseColorFactor":[
					1,
					0.9576401710510254,
					0.9893091320991516,
					1
				],
				"roughnessFactor":0.1818181872367859
			}
		},
		{
			"doubleSided":true,
			"name":"Materiais",
			"pbrMetallicRoughness":{
				"baseColorTexture":{
					"index":0
				},
				"metallicFactor":0,
				"roughnessFactor":0.5
			}
		},
		{
			"doubleSided":true,
			"name":"Materiais.001",
			"pbrMetallicRoughness":{
				"baseColorFactor":[
					0.20938122272491455,
					0.19325946271419525,
					0.22280266880989075,
					1
				],
				"metallicFactor":0.5757575631141663,
				"roughnessFactor":0.2222222089767456
			}
		},
		{
			"doubleSided":true,
			"name":"Materiais.002",
			"pbrMetallicRoughness":{
				"baseColorFactor":[
					0.011064215563237667,
					0.25995731353759766,
					0,
					1
				],
				"metallicFactor":0.7121211886405945,
				"roughnessFactor":0.13131314516067505
			}
		}
	],
	"meshes":[
		{
			"name":"C\u00edrculo.003",
			"primitives":[
				{
					"attributes":{
						"POSITION":0,
						"NORMAL":1,
						"TEXCOORD_0":2,
						"TEXCOORD_1":3,
						"TEXCOORD_2":4
					},
					"indices":5,
					"material":0
				},
				{
					"attributes":{
						"POSITION":6,
						"NORMAL":7,
						"TEXCOORD_0":8,
						"TEXCOORD_1":9,
						"TEXCOORD_2":10
					},
					"indices":11,
					"material":1
				},
				{
					"attributes":{
						"POSITION":12,
						"NORMAL":13,
						"TEXCOORD_0":14,
						"TEXCOORD_1":15,
						"TEXCOORD_2":16
					},
					"indices":17,
					"material":2
				},
				{
					"attributes":{
						"POSITION":18,
						"NORMAL":19,
						"TEXCOORD_0":20,
						"TEXCOORD_1":21,
						"TEXCOORD_2":22
					},
					"indices":23,
					"material":3
				}
			]
		},
		{
			"name":"Plano",
			"primitives":[
				{
					"attributes":{
						"POSITION":24,
						"NORMAL":25,
						"TEXCOORD_0":26,
						"COLOR_0":27,
						"COLOR_1":28
					},
					"indices":29,
					"material":4
				}
			]
		},
		{
			"name":"Texto.002",
			"primitives":[
				{
					"attributes":{
						"POSITION":30,
						"NORMAL":31,
						"TEXCOORD_0":32
					},
					"indices":33,
					"material":5
				}
			]
		},
		{
			"name":"Texto.003",
			"primitives":[
				{
					"attributes":{
						"POSITION":34,
						"NORMAL":35,
						"TEXCOORD_0":36
					},
					"indices":37,
					"material":6
				}
			]
		}
	],
	"textures":[
		{
			"sampler":0,
			"source":0
		}
	],
	"images":[
		{
			"mimeType":"image/png",
			"name":"Color2.png",
			"uri":"../../../../../Users/Usu%C3%A1rio/Pictures/Mapa%20Tem%C3%A1tico/Blender/Insumos/Color2.png"
		}
	],
	"accessors":[
		{
			"bufferView":0,
			"componentType":5126,
			"count":5027,
			"max":[
				1.4455602169036865,
				0.05067596584558487,
				1.6613481044769287
			],
			"min":[
				-1.6646902561187744,
				-0.08745929598808289,
				-2.7155568599700928
			],
			"type":"VEC3"
		},
		{
			"bufferView":1,
			"componentType":5126,
			"count":5027,
			"type":"VEC3"
		},
		{
			"bufferView":2,
			"componentType":5126,
			"count":5027,
			"type":"VEC2"
		},
		{
			"bufferView":3,
			"componentType":5126,
			"count":5027,
			"type":"VEC2"
		},
		{
			"bufferView":4,
			"componentType":5126,
			"count":5027,
			"type":"VEC2"
		},
		{
			"bufferView":5,
			"componentType":5123,
			"count":8397,
			"type":"SCALAR"
		},
		{
			"bufferView":6,
			"componentType":5126,
			"count":296,
			"max":[
				1.1363414525985718,
				0.05067591369152069,
				-1.5590806007385254
			],
			"min":[
				-1.499489188194275,
				-0.003840576857328415,
				-2.14441180229187
			],
			"type":"VEC3"
		},
		{
			"bufferView":7,
			"componentType":5126,
			"count":296,
			"type":"VEC3"
		},
		{
			"bufferView":8,
			"componentType":5126,
			"count":296,
			"type":"VEC2"
		},
		{
			"bufferView":9,
			"componentType":5126,
			"count":296,
			"type":"VEC2"
		},
		{
			"bufferView":10,
			"componentType":5126,
			"count":296,
			"type":"VEC2"
		},
		{
			"bufferView":11,
			"componentType":5123,
			"count":408,
			"type":"SCALAR"
		},
		{
			"bufferView":12,
			"componentType":5126,
			"count":5274,
			"max":[
				1.3437929153442383,
				0.09353551268577576,
				1.5536116361618042
			],
			"min":[
				-1.539003610610962,
				-0.006247933022677898,
				-2.5283985137939453
			],
			"type":"VEC3"
		},
		{
			"bufferView":13,
			"componentType":5126,
			"count":5274,
			"type":"VEC3"
		},
		{
			"bufferView":14,
			"componentType":5126,
			"count":5274,
			"type":"VEC2"
		},
		{
			"bufferView":15,
			"componentType":5126,
			"count":5274,
			"type":"VEC2"
		},
		{
			"bufferView":16,
			"componentType":5126,
			"count":5274,
			"type":"VEC2"
		},
		{
			"bufferView":17,
			"componentType":5123,
			"count":8244,
			"type":"SCALAR"
		},
		{
			"bufferView":18,
			"componentType":5126,
			"count":2490,
			"max":[
				1.2775062322616577,
				0.08387893438339233,
				1.5312342643737793
			],
			"min":[
				-1.4515846967697144,
				-0.035423826426267624,
				-2.4544925689697266
			],
			"type":"VEC3"
		},
		{
			"bufferView":19,
			"componentType":5126,
			"count":2490,
			"type":"VEC3"
		},
		{
			"bufferView":20,
			"componentType":5126,
			"count":2490,
			"type":"VEC2"
		},
		{
			"bufferView":21,
			"componentType":5126,
			"count":2490,
			"type":"VEC2"
		},
		{
			"bufferView":22,
			"componentType":5126,
			"count":2490,
			"type":"VEC2"
		},
		{
			"bufferView":23,
			"componentType":5123,
			"count":6594,
			"type":"SCALAR"
		},
		{
			"bufferView":24,
			"componentType":5126,
			"count":4225,
			"max":[
				1,
				0,
				1
			],
			"min":[
				-1,
				0,
				-1
			],
			"type":"VEC3"
		},
		{
			"bufferView":25,
			"componentType":5126,
			"count":4225,
			"type":"VEC3"
		},
		{
			"bufferView":26,
			"componentType":5126,
			"count":4225,
			"type":"VEC2"
		},
		{
			"bufferView":27,
			"componentType":5121,
			"count":4225,
			"normalized":true,
			"type":"VEC4"
		},
		{
			"bufferView":28,
			"componentType":5126,
			"count":4225,
			"type":"VEC3"
		},
		{
			"bufferView":29,
			"componentType":5123,
			"count":24576,
			"type":"SCALAR"
		},
		{
			"bufferView":30,
			"componentType":5126,
			"count":26468,
			"max":[
				8.69800090789795,
				0.08999998867511749,
				0.24000686407089233
			],
			"min":[
				0.06700000911951065,
				-0.08999998867511749,
				-0.6920000314712524
			],
			"type":"VEC3"
		},
		{
			"bufferView":31,
			"componentType":5126,
			"count":26468,
			"type":"VEC3"
		},
		{
			"bufferView":32,
			"componentType":5126,
			"count":26468,
			"type":"VEC2"
		},
		{
			"bufferView":33,
			"componentType":5123,
			"count":133872,
			"type":"SCALAR"
		},
		{
			"bufferView":34,
			"componentType":5126,
			"count":3554,
			"max":[
				4.050073623657227,
				0.05999999865889549,
				0.02902207151055336
			],
			"min":[
				0.05300000682473183,
				-0.05999999865889549,
				-0.7110123634338379
			],
			"type":"VEC3"
		},
		{
			"bufferView":35,
			"componentType":5126,
			"count":3554,
			"type":"VEC3"
		},
		{
			"bufferView":36,
			"componentType":5126,
			"count":3554,
			"type":"VEC2"
		},
		{
			"bufferView":37,
			"componentType":5123,
			"count":17736,
			"type":"SCALAR"
		},
		{
			"bufferView":38,
			"componentType":5126,
			"count":250,
			"max":[
				10.416666666666666
			],
			"min":[
				0.041666666666666664
			],
			"type":"SCALAR"
		},
		{
			"bufferView":39,
			"componentType":5126,
			"count":250,
			"type":"VEC4"
		}
	],
	"bufferViews":[
		{
			"buffer":0,
			"byteLength":60324,
			"byteOffset":0,
			"target":34962
		},
		{
			"buffer":0,
			"byteLength":60324,
			"byteOffset":60324,
			"target":34962
		},
		{
			"buffer":0,
			"byteLength":40216,
			"byteOffset":120648,
			"target":34962
		},
		{
			"buffer":0,
			"byteLength":40216,
			"byteOffset":160864,
			"target":34962
		},
		{
			"buffer":0,
			"byteLength":40216,
			"byteOffset":201080,
			"target":34962
		},
		{
			"buffer":0,
			"byteLength":16794,
			"byteOffset":241296,
			"target":34963
		},
		{
			"buffer":0,
			"byteLength":3552,
			"byteOffset":258092,
			"target":34962
		},
		{
			"buffer":0,
			"byteLength":3552,
			"byteOffset":261644,
			"target":34962
		},
		{
			"buffer":0,
			"byteLength":2368,
			"byteOffset":265196,
			"target":34962
		},
		{
			"buffer":0,
			"byteLength":2368,
			"byteOffset":267564,
			"target":34962
		},
		{
			"buffer":0,
			"byteLength":2368,
			"byteOffset":269932,
			"target":34962
		},
		{
			"buffer":0,
			"byteLength":816,
			"byteOffset":272300,
			"target":34963
		},
		{
			"buffer":0,
			"byteLength":63288,
			"byteOffset":273116,
			"target":34962
		},
		{
			"buffer":0,
			"byteLength":63288,
			"byteOffset":336404,
			"target":34962
		},
		{
			"buffer":0,
			"byteLength":42192,
			"byteOffset":399692,
			"target":34962
		},
		{
			"buffer":0,
			"byteLength":42192,
			"byteOffset":441884,
			"target":34962
		},
		{
			"buffer":0,
			"byteLength":42192,
			"byteOffset":484076,
			"target":34962
		},
		{
			"buffer":0,
			"byteLength":16488,
			"byteOffset":526268,
			"target":34963
		},
		{
			"buffer":0,
			"byteLength":29880,
			"byteOffset":542756,
			"target":34962
		},
		{
			"buffer":0,
			"byteLength":29880,
			"byteOffset":572636,
			"target":34962
		},
		{
			"buffer":0,
			"byteLength":19920,
			"byteOffset":602516,
			"target":34962
		},
		{
			"buffer":0,
			"byteLength":19920,
			"byteOffset":622436,
			"target":34962
		},
		{
			"buffer":0,
			"byteLength":19920,
			"byteOffset":642356,
			"target":34962
		},
		{
			"buffer":0,
			"byteLength":13188,
			"byteOffset":662276,
			"target":34963
		},
		{
			"buffer":0,
			"byteLength":50700,
			"byteOffset":675464,
			"target":34962
		},
		{
			"buffer":0,
			"byteLength":50700,
			"byteOffset":726164,
			"target":34962
		},
		{
			"buffer":0,
			"byteLength":33800,
			"byteOffset":776864,
			"target":34962
		},
		{
			"buffer":0,
			"byteLength":16900,
			"byteOffset":810664,
			"target":34962
		},
		{
			"buffer":0,
			"byteLength":50700,
			"byteOffset":827564,
			"target":34962
		},
		{
			"buffer":0,
			"byteLength":49152,
			"byteOffset":878264,
			"target":34963
		},
		{
			"buffer":0,
			"byteLength":317616,
			"byteOffset":927416,
			"target":34962
		},
		{
			"buffer":0,
			"byteLength":317616,
			"byteOffset":1245032,
			"target":34962
		},
		{
			"buffer":0,
			"byteLength":211744,
			"byteOffset":1562648,
			"target":34962
		},
		{
			"buffer":0,
			"byteLength":267744,
			"byteOffset":1774392,
			"target":34963
		},
		{
			"buffer":0,
			"byteLength":42648,
			"byteOffset":2042136,
			"target":34962
		},
		{
			"buffer":0,
			"byteLength":42648,
			"byteOffset":2084784,
			"target":34962
		},
		{
			"buffer":0,
			"byteLength":28432,
			"byteOffset":2127432,
			"target":34962
		},
		{
			"buffer":0,
			"byteLength":35472,
			"byteOffset":2155864,
			"target":34963
		},
		{
			"buffer":0,
			"byteLength":1000,
			"byteOffset":2191336
		},
		{
			"buffer":0,
			"byteLength":4000,
			"byteOffset":2192336
		}
	],
	"samplers":[
		{
			"magFilter":9729,
			"minFilter":9987
		}
	],
	"buffers":[
		{
			"byteLength":2196336,
			"uri":"Projeto.bin"
		}
	]
}
